<svg width="632" height="392" viewBox="0 0 632 392" fill="none" xmlns="http://www.w3.org/2000/svg">
<path d="M3.10369 298.659V280.364H75.7955V298.659H50.6392V364H28.2599V298.659H3.10369ZM353.464 280.364V364H334.515L304.295 320.058H303.805V364H281.099V280.364H300.374L330.104 324.142H330.758V280.364H353.464ZM573.06 280.364L586.782 304.703H587.435L601.32 280.364H626.64L601.647 322.182L627.62 364H601.647L587.435 339.17H586.782L572.57 364H546.76L572.407 322.182L547.577 280.364H573.06Z" fill="#21BF73"/>
<path d="M93.6111 364.98C89.6089 364.98 86.0696 364.327 82.9932 363.02C79.9439 361.686 77.5481 359.671 75.8057 356.976C74.0632 354.281 73.192 350.85 73.192 346.685C73.192 343.254 73.7774 340.328 74.9481 337.904C76.1188 335.454 77.7523 333.453 79.8486 331.901C81.945 330.349 84.3817 329.165 87.1586 328.348C89.9629 327.532 92.9849 327.001 96.2247 326.756C99.7368 326.483 102.555 326.157 104.678 325.776C106.829 325.367 108.381 324.809 109.334 324.101C110.287 323.366 110.763 322.4 110.763 321.202V321.038C110.763 319.405 110.137 318.152 108.885 317.281C107.632 316.41 106.026 315.974 104.066 315.974C101.915 315.974 100.159 316.451 98.7975 317.404C97.4635 318.329 96.6603 319.759 96.3881 321.692H75.6423C75.9146 317.88 77.1261 314.368 79.2769 311.156C81.4549 307.916 84.6267 305.329 88.7922 303.396C92.9577 301.436 98.1577 300.456 104.392 300.456C108.885 300.456 112.914 300.987 116.48 302.049C120.047 303.083 123.083 304.54 125.587 306.418C128.092 308.27 129.998 310.448 131.305 312.952C132.639 315.43 133.306 318.125 133.306 321.038V364H112.233V355.179H111.743C110.491 357.52 108.966 359.413 107.169 360.855C105.4 362.298 103.371 363.347 101.084 364C98.8247 364.653 96.3336 364.98 93.6111 364.98ZM100.962 350.768C102.677 350.768 104.283 350.415 105.781 349.707C107.305 348.999 108.544 347.978 109.497 346.644C110.45 345.31 110.926 343.69 110.926 341.784V336.557C110.327 336.802 109.688 337.033 109.007 337.251C108.354 337.469 107.646 337.673 106.883 337.864C106.148 338.054 105.359 338.231 104.515 338.395C103.698 338.558 102.84 338.708 101.942 338.844C100.2 339.116 98.7703 339.565 97.654 340.191C96.565 340.79 95.7483 341.539 95.2037 342.438C94.6865 343.309 94.4278 344.289 94.4278 345.378C94.4278 347.12 95.0404 348.454 96.2655 349.38C97.4907 350.306 99.0561 350.768 100.962 350.768ZM201.413 321.692H180.668C180.559 320.412 180.109 319.31 179.32 318.384C178.53 317.458 177.509 316.75 176.257 316.26C175.032 315.743 173.671 315.484 172.173 315.484C170.24 315.484 168.58 315.838 167.191 316.546C165.803 317.254 165.122 318.261 165.149 319.568C165.122 320.494 165.517 321.351 166.333 322.141C167.177 322.931 168.797 323.543 171.193 323.979L183.935 326.266C190.36 327.436 195.138 329.41 198.269 332.187C201.427 334.937 203.02 338.626 203.047 343.254C203.02 347.719 201.686 351.599 199.045 354.893C196.431 358.16 192.851 360.692 188.304 362.489C183.785 364.259 178.626 365.143 172.827 365.143C163.243 365.143 155.743 363.183 150.325 359.263C144.934 355.342 141.926 350.17 141.3 343.744H163.679C163.978 345.732 164.959 347.27 166.619 348.359C168.307 349.421 170.431 349.952 172.99 349.952C175.059 349.952 176.761 349.598 178.095 348.89C179.456 348.182 180.15 347.175 180.178 345.868C180.15 344.67 179.551 343.717 178.381 343.009C177.237 342.301 175.44 341.73 172.99 341.294L161.882 339.334C155.484 338.218 150.692 336.094 147.507 332.963C144.322 329.832 142.743 325.803 142.77 320.875C142.743 316.519 143.886 312.83 146.2 309.808C148.542 306.759 151.877 304.444 156.206 302.865C160.562 301.259 165.721 300.456 171.683 300.456C180.749 300.456 187.896 302.335 193.123 306.092C198.378 309.849 201.141 315.049 201.413 321.692ZM231.94 349.135L232.103 322.345H235.044L250.235 301.273H275.555L250.072 334.107H243.701L231.94 349.135ZM211.684 364V280.364H234.227V364H211.684ZM250.399 364L236.024 339.17L250.725 323.162L276.208 364H250.399ZM394.588 365.143C387.89 365.143 382.118 363.864 377.272 361.305C372.453 358.718 368.737 355.016 366.123 350.197C363.537 345.351 362.244 339.552 362.244 332.8C362.244 326.32 363.551 320.657 366.164 315.811C368.778 310.965 372.467 307.194 377.231 304.499C381.996 301.804 387.618 300.456 394.098 300.456C398.835 300.456 403.123 301.191 406.962 302.661C410.8 304.131 414.081 306.269 416.804 309.073C419.526 311.85 421.622 315.226 423.093 319.201C424.563 323.176 425.298 327.654 425.298 332.636V337.864H369.268V325.449H404.552C404.525 323.652 404.062 322.073 403.164 320.712C402.292 319.323 401.108 318.248 399.611 317.485C398.141 316.696 396.466 316.301 394.588 316.301C392.764 316.301 391.089 316.696 389.565 317.485C388.04 318.248 386.815 319.31 385.889 320.671C384.991 322.032 384.514 323.625 384.46 325.449V338.844C384.46 340.858 384.882 342.655 385.726 344.234C386.57 345.813 387.781 347.052 389.36 347.951C390.939 348.849 392.845 349.298 395.078 349.298C396.63 349.298 398.045 349.08 399.325 348.645C400.632 348.209 401.748 347.583 402.674 346.766C403.599 345.922 404.28 344.915 404.715 343.744H425.298C424.59 348.1 422.916 351.885 420.275 355.097C417.634 358.283 414.135 360.76 409.779 362.53C405.451 364.272 400.387 365.143 394.588 365.143ZM453.262 301.273L462.409 320.712L472.047 301.273H494.426L477.601 332.636L495.243 364H473.027L462.409 344.071L452.118 364H429.576L447.381 332.636L430.719 301.273H453.262ZM539.849 301.273V317.608H498.521V301.273H539.849ZM506.525 286.244H529.067V343.826C529.067 344.697 529.217 345.432 529.517 346.031C529.816 346.603 530.279 347.039 530.905 347.338C531.531 347.61 532.334 347.746 533.315 347.746C533.995 347.746 534.785 347.665 535.683 347.501C536.609 347.338 537.289 347.202 537.725 347.093L540.992 362.938C539.985 363.238 538.542 363.605 536.663 364.041C534.812 364.476 532.607 364.762 530.047 364.898C524.875 365.171 520.532 364.64 517.02 363.306C513.508 361.944 510.867 359.807 509.098 356.894C507.328 353.981 506.47 350.333 506.525 345.95V286.244Z" fill="#2D394F"/>
<ellipse cx="309" cy="118.442" rx="120" ry="118.442" fill="#2D394F"/>
<path d="M218.294 99.7045V86.1818H272.023V99.7045H253.429V148H236.888V99.7045H218.294ZM331.826 86.1818V148H317.82L295.484 115.521H295.122V148H278.339V86.1818H292.586L314.56 118.54H315.043V86.1818H331.826ZM357.755 86.1818L367.897 104.172H368.38L378.642 86.1818H397.357L378.884 117.091L398.081 148H378.884L368.38 129.648H367.897L357.392 148H338.316L357.272 117.091L338.919 86.1818H357.755Z" fill="#21BF73"/>
</svg>
