<svg width="318" height="197" viewBox="0 0 318 197" fill="none" xmlns="http://www.w3.org/2000/svg">
<path d="M1.53835 151.059V141.991H37.5682V151.059H25.0994V183.445H14.0071V151.059H1.53835ZM175.195 141.991V183.445H165.803L150.824 161.665H150.581V183.445H139.327V141.991H148.881L163.617 163.689H163.941V141.991H175.195ZM284.039 141.991L290.84 154.055H291.164L298.046 141.991H310.595L298.208 162.718L311.081 183.445H298.208L291.164 171.138H290.84L283.796 183.445H271.003L283.715 162.718L271.408 141.991H284.039Z" fill="#21BF73"/>
<path d="M46.3985 183.931C44.4149 183.931 42.6606 183.607 41.1357 182.959C39.6244 182.298 38.4369 181.3 37.5732 179.964C36.7096 178.628 36.2778 176.927 36.2778 174.863C36.2778 173.162 36.5679 171.712 37.1482 170.511C37.7284 169.296 38.5381 168.305 39.5771 167.535C40.6162 166.766 41.824 166.179 43.2004 165.774C44.5903 165.37 46.0882 165.106 47.694 164.985C49.4347 164.85 50.8314 164.688 51.884 164.499C52.95 164.297 53.7192 164.02 54.1915 163.669C54.6638 163.305 54.8999 162.826 54.8999 162.232V162.151C54.8999 161.341 54.5896 160.721 53.9688 160.289C53.3481 159.857 52.5519 159.641 51.5803 159.641C50.5143 159.641 49.6439 159.877 48.9692 160.35C48.308 160.808 47.9099 161.517 47.7749 162.475H37.4923C37.6272 160.586 38.2277 158.845 39.2938 157.253C40.3733 155.647 41.9454 154.365 44.01 153.407C46.0747 152.435 48.6521 151.949 51.7423 151.949C53.9688 151.949 55.966 152.213 57.7338 152.739C59.5015 153.252 61.0061 153.974 62.2476 154.905C63.4891 155.822 64.4337 156.902 65.0814 158.143C65.7426 159.371 66.0732 160.707 66.0732 162.151V183.445H55.6286V179.073H55.3857C54.765 180.234 54.0093 181.171 53.1187 181.887C52.2416 182.602 51.2362 183.121 50.1027 183.445C48.9827 183.769 47.748 183.931 46.3985 183.931ZM50.042 176.887C50.8921 176.887 51.6883 176.711 52.4305 176.361C53.1862 176.01 53.8002 175.504 54.2725 174.843C54.7448 174.181 54.9809 173.378 54.9809 172.434V169.843C54.684 169.964 54.3669 170.079 54.0296 170.187C53.7057 170.295 53.3548 170.396 52.977 170.491C52.6127 170.585 52.2213 170.673 51.803 170.754C51.3982 170.835 50.9731 170.909 50.5278 170.976C49.6642 171.111 48.9557 171.334 48.4024 171.644C47.8627 171.941 47.4578 172.312 47.1879 172.758C46.9316 173.189 46.8034 173.675 46.8034 174.215C46.8034 175.079 47.107 175.74 47.7142 176.199C48.3215 176.658 49.0974 176.887 50.042 176.887ZM99.831 162.475H89.5483C89.4943 161.841 89.2717 161.294 88.8803 160.835C88.489 160.377 87.983 160.026 87.3622 159.783C86.755 159.526 86.0803 159.398 85.3381 159.398C84.38 159.398 83.5568 159.574 82.8686 159.925C82.1804 160.275 81.843 160.775 81.8565 161.422C81.843 161.881 82.0387 162.306 82.4435 162.698C82.8619 163.089 83.6648 163.393 84.8523 163.609L91.1676 164.742C94.3523 165.322 96.7205 166.301 98.2724 167.677C99.8377 169.04 100.627 170.868 100.641 173.162C100.627 175.376 99.9659 177.298 98.657 178.931C97.3615 180.551 95.587 181.806 93.3335 182.696C91.0934 183.573 88.5362 184.012 85.6619 184.012C80.9119 184.012 77.1942 183.04 74.5089 181.097C71.837 179.154 70.3459 176.59 70.0355 173.405H81.1278C81.2763 174.39 81.7621 175.153 82.5852 175.693C83.4219 176.219 84.4744 176.482 85.7429 176.482C86.7685 176.482 87.6119 176.307 88.2731 175.956C88.9478 175.605 89.2919 175.106 89.3054 174.458C89.2919 173.864 88.995 173.392 88.4148 173.041C87.848 172.69 86.9574 172.407 85.7429 172.191L80.2372 171.219C77.0661 170.666 74.6911 169.613 73.1122 168.062C71.5334 166.51 70.7507 164.513 70.7642 162.07C70.7507 159.911 71.3175 158.083 72.4645 156.585C73.625 155.073 75.2781 153.926 77.4237 153.144C79.5827 152.348 82.1399 151.949 85.0952 151.949C89.5888 151.949 93.131 152.881 95.7219 154.743C98.3263 156.605 99.696 159.182 99.831 162.475ZM114.961 176.077L115.042 162.799H116.5L124.03 152.354H136.579L123.949 168.628H120.791L114.961 176.077ZM104.922 183.445V141.991H116.095V183.445H104.922ZM124.111 183.445L116.986 171.138L124.273 163.204L136.903 183.445H124.111ZM195.578 184.012C192.259 184.012 189.398 183.378 186.996 182.109C184.607 180.827 182.765 178.992 181.47 176.604C180.188 174.202 179.547 171.327 179.547 167.981C179.547 164.769 180.195 161.962 181.49 159.56C182.786 157.158 184.614 155.289 186.976 153.953C189.337 152.617 192.124 151.949 195.335 151.949C197.683 151.949 199.809 152.314 201.711 153.042C203.614 153.771 205.24 154.83 206.59 156.22C207.939 157.597 208.978 159.27 209.707 161.24C210.435 163.21 210.8 165.43 210.8 167.9V170.491H183.028V164.337H200.517C200.504 163.447 200.274 162.664 199.829 161.989C199.397 161.301 198.81 160.768 198.068 160.39C197.339 159.999 196.509 159.803 195.578 159.803C194.674 159.803 193.844 159.999 193.089 160.39C192.333 160.768 191.726 161.294 191.267 161.969C190.821 162.644 190.585 163.433 190.558 164.337V170.976C190.558 171.975 190.767 172.866 191.186 173.648C191.604 174.431 192.205 175.045 192.987 175.49C193.77 175.936 194.715 176.158 195.821 176.158C196.59 176.158 197.292 176.05 197.926 175.834C198.574 175.618 199.127 175.308 199.586 174.903C200.045 174.485 200.382 173.986 200.598 173.405H210.8C210.449 175.564 209.619 177.44 208.31 179.033C207.001 180.611 205.267 181.839 203.108 182.716C200.962 183.58 198.453 184.012 195.578 184.012ZM224.66 152.354L229.194 161.989L233.971 152.354H245.064L236.724 167.9L245.468 183.445H234.457L229.194 173.567L224.093 183.445H212.92L221.745 167.9L213.487 152.354H224.66ZM267.577 152.354V160.451H247.093V152.354H267.577ZM251.06 144.905H262.233V173.446C262.233 173.878 262.308 174.242 262.456 174.539C262.604 174.822 262.834 175.038 263.144 175.187C263.455 175.322 263.853 175.389 264.339 175.389C264.676 175.389 265.067 175.349 265.513 175.268C265.971 175.187 266.309 175.119 266.525 175.065L268.144 182.919C267.645 183.067 266.929 183.249 265.998 183.465C265.081 183.681 263.988 183.823 262.719 183.89C260.155 184.025 258.003 183.762 256.262 183.101C254.521 182.426 253.212 181.367 252.335 179.923C251.458 178.479 251.033 176.671 251.06 174.498V144.905Z" fill="#2D394F"/>
<circle cx="151" cy="60" r="60" fill="#2D394F"/>
<path d="M105.08 59.2727V52.9091H130.364V59.2727H121.614V82H113.83V59.2727H105.08ZM158.506 52.9091V82H151.915L141.404 66.7159H141.234V82H133.336V52.9091H140.04L150.381 68.1364H150.609V52.9091H158.506ZM170.708 52.9091L175.481 61.375H175.708L180.538 52.9091H189.344L180.651 67.4545L189.685 82H180.651L175.708 73.3636H175.481L170.538 82H161.56L170.481 67.4545L161.844 52.9091H170.708Z" fill="#21BF73"/>
</svg>
