<svg width="311" height="43" viewBox="0 0 311 43" fill="none" xmlns="http://www.w3.org/2000/svg">
<path d="M0.538352 9.61364V0.545453H36.5682V9.61364H24.0994V42H13.0071V9.61364H0.538352ZM174.195 0.545453V42H164.803L149.824 20.2202H149.581V42H138.327V0.545453H147.881L162.617 22.2443H162.941V0.545453H174.195ZM283.039 0.545453L289.84 12.6094H290.164L297.046 0.545453H309.595L297.208 21.2727L310.081 42H297.208L290.164 29.6932H289.84L282.796 42H270.003L282.715 21.2727L270.408 0.545453H283.039Z" fill="#21BF73"/>
<path d="M45.3985 42.4858C43.4149 42.4858 41.6606 42.1619 40.1357 41.5142C38.6244 40.853 37.4369 39.8544 36.5732 38.5185C35.7096 37.1825 35.2778 35.4822 35.2778 33.4176C35.2778 31.7173 35.5679 30.2667 36.1482 29.0657C36.7284 27.8512 37.5381 26.8594 38.5771 26.0902C39.6162 25.321 40.824 24.734 42.2004 24.3292C43.5903 23.9244 45.0882 23.6612 46.694 23.5398C48.4347 23.4048 49.8314 23.2429 50.884 23.054C51.95 22.8516 52.7192 22.5749 53.1915 22.2241C53.6638 21.8597 53.8999 21.3807 53.8999 20.7869V20.706C53.8999 19.8963 53.5896 19.2756 52.9688 18.8438C52.3481 18.4119 51.5519 18.196 50.5803 18.196C49.5143 18.196 48.6439 18.4322 47.9692 18.9045C47.308 19.3633 46.9099 20.0717 46.7749 21.0298H36.4923C36.6272 19.1406 37.2277 17.3999 38.2938 15.8075C39.3733 14.2017 40.9454 12.9197 43.01 11.9616C45.0747 10.9901 47.6521 10.5043 50.7423 10.5043C52.9688 10.5043 54.966 10.7674 56.7338 11.2937C58.5015 11.8065 60.0061 12.5284 61.2476 13.4595C62.4891 14.3771 63.4337 15.4567 64.0814 16.6982C64.7426 17.9261 65.0732 19.2621 65.0732 20.706V42H54.6286V37.6278H54.3857C53.765 38.7884 53.0093 39.7262 52.1187 40.4414C51.2416 41.1566 50.2362 41.6761 49.1027 42C47.9827 42.3239 46.748 42.4858 45.3985 42.4858ZM49.042 35.4418C49.8921 35.4418 50.6883 35.2663 51.4305 34.9155C52.1862 34.5646 52.8002 34.0586 53.2725 33.3974C53.7448 32.7362 53.9809 31.9332 53.9809 30.9886V28.3977C53.684 28.5192 53.3669 28.6339 53.0296 28.7418C52.7057 28.8498 52.3548 28.951 51.977 29.0455C51.6127 29.1399 51.2213 29.2276 50.803 29.3086C50.3982 29.3896 49.9731 29.4638 49.5278 29.5312C48.6642 29.6662 47.9557 29.8888 47.4024 30.1992C46.8627 30.4961 46.4578 30.8672 46.1879 31.3125C45.9316 31.7443 45.8034 32.2301 45.8034 32.7699C45.8034 33.6335 46.107 34.2947 46.7142 34.7536C47.3215 35.2124 48.0974 35.4418 49.042 35.4418ZM98.831 21.0298H88.5483C88.4943 20.3956 88.2717 19.8491 87.8803 19.3903C87.489 18.9315 86.983 18.5806 86.3622 18.3377C85.755 18.0813 85.0803 17.9531 84.3381 17.9531C83.38 17.9531 82.5568 18.1286 81.8686 18.4794C81.1804 18.8303 80.843 19.3295 80.8565 19.9773C80.843 20.4361 81.0387 20.8611 81.4435 21.2525C81.8619 21.6438 82.6648 21.9474 83.8523 22.1634L90.1676 23.2969C93.3523 23.8771 95.7205 24.8555 97.2724 26.2319C98.8377 27.5948 99.6271 29.4233 99.6406 31.7173C99.6271 33.9304 98.9659 35.8533 97.657 37.4862C96.3615 39.1055 94.587 40.3604 92.3335 41.2511C90.0934 42.1282 87.5362 42.5668 84.6619 42.5668C79.9119 42.5668 76.1942 41.5952 73.5089 39.652C70.837 37.7088 69.3459 35.1449 69.0355 31.9602H80.1278C80.2763 32.9453 80.7621 33.7077 81.5852 34.2475C82.4219 34.7738 83.4744 35.0369 84.7429 35.0369C85.7685 35.0369 86.6119 34.8615 87.2731 34.5107C87.9478 34.1598 88.2919 33.6605 88.3054 33.0128C88.2919 32.419 87.995 31.9467 87.4148 31.5959C86.848 31.245 85.9574 30.9616 84.7429 30.7457L79.2372 29.7741C76.0661 29.2209 73.6911 28.1683 72.1122 26.6165C70.5334 25.0646 69.7507 23.0675 69.7642 20.625C69.7507 18.4659 70.3175 16.6374 71.4645 15.1396C72.625 13.6282 74.2781 12.4812 76.4237 11.6985C78.5827 10.9023 81.1399 10.5043 84.0952 10.5043C88.5888 10.5043 92.131 11.4354 94.7219 13.2976C97.3263 15.1598 98.696 17.7372 98.831 21.0298ZM113.961 34.6321L114.042 21.3537H115.5L123.03 10.9091H135.579L122.949 27.1832H119.791L113.961 34.6321ZM103.922 42V0.545453H115.095V42H103.922ZM123.111 42L115.986 29.6932L123.273 21.7585L135.903 42H123.111ZM194.578 42.5668C191.259 42.5668 188.398 41.9325 185.996 40.6641C183.607 39.3821 181.765 37.5469 180.47 35.1584C179.188 32.7564 178.547 29.8821 178.547 26.5355C178.547 23.3239 179.195 20.517 180.49 18.1151C181.786 15.7131 183.614 13.8441 185.976 12.5082C188.337 11.1722 191.124 10.5043 194.335 10.5043C196.683 10.5043 198.809 10.8686 200.711 11.5973C202.614 12.326 204.24 13.3853 205.59 14.7752C206.939 16.1516 207.978 17.8249 208.707 19.7951C209.435 21.7653 209.8 23.9851 209.8 26.4545V29.0455H182.028V22.892H199.517C199.504 22.0014 199.274 21.2187 198.829 20.544C198.397 19.8558 197.81 19.3228 197.068 18.945C196.339 18.5536 195.509 18.358 194.578 18.358C193.674 18.358 192.844 18.5536 192.089 18.945C191.333 19.3228 190.726 19.8491 190.267 20.5238C189.821 21.1985 189.585 21.9879 189.558 22.892V29.5312C189.558 30.5298 189.767 31.4205 190.186 32.2031C190.604 32.9858 191.205 33.5998 191.987 34.0451C192.77 34.4904 193.715 34.7131 194.821 34.7131C195.59 34.7131 196.292 34.6051 196.926 34.3892C197.574 34.1733 198.127 33.8629 198.586 33.4581C199.045 33.0398 199.382 32.5405 199.598 31.9602H209.8C209.449 34.1193 208.619 35.995 207.31 37.5874C206.001 39.1662 204.267 40.3942 202.108 41.2713C199.962 42.1349 197.453 42.5668 194.578 42.5668ZM223.66 10.9091L228.194 20.544L232.971 10.9091H244.064L235.724 26.4545L244.468 42H233.457L228.194 32.1222L223.093 42H211.92L220.745 26.4545L212.487 10.9091H223.66ZM266.577 10.9091V19.0057H246.093V10.9091H266.577ZM250.06 3.46023H261.233V32.0007C261.233 32.4325 261.308 32.7969 261.456 33.0938C261.604 33.3771 261.834 33.593 262.144 33.7415C262.455 33.8764 262.853 33.9439 263.339 33.9439C263.676 33.9439 264.067 33.9034 264.513 33.8224C264.971 33.7415 265.309 33.674 265.525 33.62L267.144 41.4737C266.645 41.6222 265.929 41.8043 264.998 42.0202C264.081 42.2362 262.988 42.3778 261.719 42.4453C259.155 42.5803 257.003 42.3171 255.262 41.6559C253.521 40.9812 252.212 39.9219 251.335 38.478C250.458 37.0341 250.033 35.2259 250.06 33.0533V3.46023Z" fill="#2D394F"/>
</svg>
